<svg width="21" height="22" viewBox="0 0 21 22" fill="none" xmlns="http://www.w3.org/2000/svg">
<mask id="mask0_69_101" style="mask-type:alpha" maskUnits="userSpaceOnUse" x="0" y="0" width="21" height="22">
<rect y="0.978088" width="20.7867" height="20.7867" fill="#D9D9D9"/>
</mask>
<g mask="url(#mask0_69_101)">
<path d="M6.92891 13.1037H13.8578V12.6273C13.8578 11.9922 13.5402 11.4797 12.9051 11.09C12.2699 10.7002 11.4327 10.5053 10.3933 10.5053C9.35402 10.5053 8.51678 10.7002 7.88163 11.09C7.24648 11.4797 6.92891 11.9922 6.92891 12.6273V13.1037ZM10.3933 9.63922C10.8697 9.63922 11.2775 9.4696 11.6167 9.13038C11.956 8.79115 12.1256 8.38335 12.1256 7.90699C12.1256 7.43063 11.956 7.02284 11.6167 6.68361C11.2775 6.34439 10.8697 6.17477 10.3933 6.17477C9.91699 6.17477 9.5092 6.34439 9.16997 6.68361C8.83074 7.02284 8.66113 7.43063 8.66113 7.90699C8.66113 8.38335 8.83074 8.79115 9.16997 9.13038C9.5092 9.4696 9.91699 9.63922 10.3933 9.63922ZM1.73224 20.0325V4.44255C1.73224 3.96619 1.90185 3.55839 2.24108 3.21917C2.58031 2.87994 2.9881 2.71033 3.46446 2.71033H17.3222C17.7986 2.71033 18.2064 2.87994 18.5456 3.21917C18.8848 3.55839 19.0545 3.96619 19.0545 4.44255V14.8359C19.0545 15.3122 18.8848 15.72 18.5456 16.0593C18.2064 16.3985 17.7986 16.5681 17.3222 16.5681H5.19668L1.73224 20.0325Z" fill="#D9D9D9"/>
</g>
</svg>
