<svg width="25" height="25" viewBox="0 0 25 25" fill="none" xmlns="http://www.w3.org/2000/svg">
<mask id="mask0_69_72" style="mask-type:alpha" maskUnits="userSpaceOnUse" x="0" y="0" width="25" height="25">
<rect width="25" height="25" fill="#D9D9D9"/>
</mask>
<g mask="url(#mask0_69_72)">
<path d="M6.09373 17.8124C6.97915 17.1353 7.96873 16.6015 9.06248 16.2109C10.1562 15.8202 11.3021 15.6249 12.5 15.6249C13.6979 15.6249 14.8437 15.8202 15.9375 16.2109C17.0312 16.6015 18.0208 17.1353 18.9062 17.8124C19.5139 17.1006 19.987 16.2933 20.3255 15.3905C20.664 14.4878 20.8333 13.5242 20.8333 12.4999C20.8333 10.1909 20.0217 8.22475 18.3984 6.60148C16.7752 4.97822 14.809 4.16659 12.5 4.16659C10.191 4.16659 8.22481 4.97822 6.60154 6.60148C4.97828 8.22475 4.16665 10.1909 4.16665 12.4999C4.16665 13.5242 4.33592 14.4878 4.67446 15.3905C5.013 16.2933 5.48609 17.1006 6.09373 17.8124ZM12.5 13.5416C11.4757 13.5416 10.612 13.19 9.90883 12.4869C9.20571 11.7838 8.85415 10.9201 8.85415 9.89575C8.85415 8.87145 9.20571 8.00773 9.90883 7.30461C10.612 6.60148 11.4757 6.24992 12.5 6.24992C13.5243 6.24992 14.388 6.60148 15.0911 7.30461C15.7943 8.00773 16.1458 8.87145 16.1458 9.89575C16.1458 10.9201 15.7943 11.7838 15.0911 12.4869C14.388 13.19 13.5243 13.5416 12.5 13.5416ZM12.5 22.9166C11.059 22.9166 9.70484 22.6431 8.43748 22.0963C7.17012 21.5494 6.06769 20.8072 5.13019 19.8697C4.19269 18.9322 3.4505 17.8298 2.90363 16.5624C2.35675 15.2951 2.08331 13.9409 2.08331 12.4999C2.08331 11.0589 2.35675 9.70478 2.90363 8.43742C3.4505 7.17006 4.19269 6.06763 5.13019 5.13013C6.06769 4.19263 7.17012 3.45044 8.43748 2.90356C9.70484 2.35669 11.059 2.08325 12.5 2.08325C13.941 2.08325 15.2951 2.35669 16.5625 2.90356C17.8298 3.45044 18.9323 4.19263 19.8698 5.13013C20.8073 6.06763 21.5495 7.17006 22.0963 8.43742C22.6432 9.70478 22.9166 11.0589 22.9166 12.4999C22.9166 13.9409 22.6432 15.2951 22.0963 16.5624C21.5495 17.8298 20.8073 18.9322 19.8698 19.8697C18.9323 20.8072 17.8298 21.5494 16.5625 22.0963C15.2951 22.6431 13.941 22.9166 12.5 22.9166ZM12.5 20.8333C13.4201 20.8333 14.2882 20.6987 15.1041 20.4296C15.9201 20.1605 16.6666 19.7742 17.3437 19.2708C16.6666 18.7673 15.9201 18.381 15.1041 18.1119C14.2882 17.8428 13.4201 17.7083 12.5 17.7083C11.5798 17.7083 10.7118 17.8428 9.89581 18.1119C9.07984 18.381 8.33331 18.7673 7.65623 19.2708C8.33331 19.7742 9.07984 20.1605 9.89581 20.4296C10.7118 20.6987 11.5798 20.8333 12.5 20.8333ZM12.5 11.4583C12.9514 11.4583 13.3246 11.3107 13.6198 11.0155C13.9149 10.7204 14.0625 10.3471 14.0625 9.89575C14.0625 9.44436 13.9149 9.0711 13.6198 8.77596C13.3246 8.48082 12.9514 8.33325 12.5 8.33325C12.0486 8.33325 11.6753 8.48082 11.3802 8.77596C11.085 9.0711 10.9375 9.44436 10.9375 9.89575C10.9375 10.3471 11.085 10.7204 11.3802 11.0155C11.6753 11.3107 12.0486 11.4583 12.5 11.4583Z" fill="#333333"/>
</g>
</svg>
