<svg width="23" height="23" viewBox="0 0 23 23" fill="none" xmlns="http://www.w3.org/2000/svg">
<mask id="mask0_297_4" style="mask-type:alpha" maskUnits="userSpaceOnUse" x="0" y="0" width="23" height="23">
<rect width="22.3515" height="22.3515" fill="#D9D9D9"/>
</mask>
<g mask="url(#mask0_297_4)">
<path d="M4.65657 19.5575C4.14435 19.5575 3.70585 19.3752 3.34109 19.0104C2.97633 18.6456 2.79395 18.2071 2.79395 17.6949V4.65657C2.79395 4.14435 2.97633 3.70585 3.34109 3.34109C3.70585 2.97633 4.14435 2.79395 4.65657 2.79395H12.1071V4.65657H4.65657V17.6949H17.6949V10.2444H19.5575V17.6949C19.5575 18.2071 19.3752 18.6456 19.0104 19.0104C18.6456 19.3752 18.2071 19.5575 17.6949 19.5575H4.65657ZM5.58788 15.8323H16.7636L13.2712 11.1757L10.4773 14.901L8.38181 12.1071L5.58788 15.8323ZM15.8323 8.38181V6.51919H13.9697V4.65657H15.8323V2.79395H17.6949V4.65657H19.5575V6.51919H17.6949V8.38181H15.8323Z" fill="#333333"/>
</g>
</svg>
