<svg width="21" height="22" viewBox="0 0 21 22" fill="none" xmlns="http://www.w3.org/2000/svg">
<mask id="mask0_69_98" style="mask-type:alpha" maskUnits="userSpaceOnUse" x="0" y="0" width="21" height="22">
<rect y="0.235352" width="20.7867" height="20.7867" fill="#D9D9D9"/>
</mask>
<g mask="url(#mask0_69_98)">
<path d="M17.2789 18.4237C15.4745 18.4237 13.6918 18.0303 11.9307 17.2436C10.1696 16.4569 8.56728 15.3418 7.12376 13.8982C5.68024 12.4547 4.56512 10.8524 3.7784 9.09133C2.99169 7.33024 2.59833 5.54749 2.59833 3.7431C2.59833 3.48326 2.68494 3.26673 2.85816 3.09351C3.03138 2.92029 3.24791 2.83368 3.50774 2.83368H7.01549C7.21759 2.83368 7.39803 2.90225 7.55681 3.03938C7.7156 3.17651 7.80943 3.33891 7.8383 3.52657L8.40127 6.55796C8.43014 6.78892 8.42293 6.9838 8.37962 7.14258C8.33631 7.30137 8.25692 7.4385 8.14144 7.55399L6.04112 9.67596C6.32982 10.2101 6.67266 10.7261 7.06963 11.2241C7.46659 11.7221 7.90326 12.2021 8.37962 12.664C8.82711 13.1115 9.29625 13.5265 9.78705 13.9091C10.2778 14.2916 10.7975 14.6417 11.3461 14.9592L13.3814 12.9239C13.5113 12.794 13.6809 12.6965 13.8903 12.6316C14.0996 12.5666 14.3053 12.5486 14.5074 12.5774L17.4954 13.1837C17.6975 13.2414 17.8635 13.3461 17.9935 13.4977C18.1234 13.6492 18.1883 13.8189 18.1883 14.0065V17.5143C18.1883 17.7741 18.1017 17.9906 17.9285 18.1638C17.7553 18.3371 17.5387 18.4237 17.2789 18.4237Z" fill="#D9D9D9"/>
</g>
</svg>
