<svg width="32" height="32" viewBox="0 0 32 32" fill="none" xmlns="http://www.w3.org/2000/svg">
<mask id="mask0_98_412" style="mask-type:alpha" maskUnits="userSpaceOnUse" x="0" y="0" width="32" height="32">
<rect x="0.870483" y="0.476562" width="31.0468" height="31.0469" fill="#D9D9D9"/>
</mask>
<g mask="url(#mask0_98_412)">
<path d="M6.04488 10.8256H26.7428V8.23831H6.04488V10.8256ZM3.45764 8.23831C3.45764 7.52681 3.71098 6.91773 4.21764 6.41107C4.72431 5.9044 5.33339 5.65106 6.04488 5.65106H26.7428C27.4543 5.65106 28.0633 5.9044 28.57 6.41107C29.0767 6.91773 29.33 7.52681 29.33 8.23831V16H6.04488V23.7618H11.3487V26.349H6.04488C5.33339 26.349 4.72431 26.0957 4.21764 25.589C3.71098 25.0823 3.45764 24.4733 3.45764 23.7618V8.23831ZM20.21 28.9363L14.7121 23.4384L16.5232 21.6273L20.21 25.2494L27.5189 17.9405L29.33 19.8162L20.21 28.9363ZM6.04488 8.23831V23.7618V17.9405V21.595V8.23831Z" fill="#E8E8E8"/>
</g>
</svg>
