<svg width="24" height="24" viewBox="0 0 24 24" fill="none" xmlns="http://www.w3.org/2000/svg">
<mask id="mask0_58_133" style="mask-type:alpha" maskUnits="userSpaceOnUse" x="0" y="0" width="24" height="24">
<rect x="0.355042" y="0.0045166" width="23.645" height="23.645" fill="#D9D9D9"/>
</mask>
<g mask="url(#mask0_58_133)">
<path d="M7.25146 20.6938C6.70959 20.6938 6.24572 20.5009 5.85985 20.115C5.47398 19.7291 5.28104 19.2652 5.28104 18.7234V5.9157H4.29584V3.94529H9.22187V2.96008H15.1331V3.94529H20.0591V5.9157H19.0739V18.7234C19.0739 19.2652 18.881 19.7291 18.4951 20.115C18.1093 20.5009 17.6454 20.6938 17.1035 20.6938H7.25146ZM17.1035 5.9157H7.25146V18.7234H17.1035V5.9157ZM9.22187 16.753H11.1923V7.88611H9.22187V16.753ZM13.1627 16.753H15.1331V7.88611H13.1627V16.753Z" fill="#333333"/>
</g>
</svg>
