<svg width="29" height="30" viewBox="0 0 29 30" fill="none" xmlns="http://www.w3.org/2000/svg">
<mask id="mask0_98_407" style="mask-type:alpha" maskUnits="userSpaceOnUse" x="0" y="0" width="29" height="30">
<rect y="0.936829" width="28.1263" height="28.1263" fill="#D9D9D9"/>
</mask>
<g mask="url(#mask0_98_407)">
<path d="M8.20348 24.3754C7.22687 24.3754 6.39676 24.0336 5.71313 23.35C5.02951 22.6664 4.68769 21.8362 4.68769 20.8596H1.75787L2.28524 18.5158H5.59594C5.92799 18.1447 6.31863 17.8566 6.76787 17.6515C7.21711 17.4464 7.69565 17.3438 8.20348 17.3438C8.71132 17.3438 9.18986 17.4464 9.6391 17.6515C10.0883 17.8566 10.479 18.1447 10.811 18.5158H15.7038L18.1649 7.9684H5.33225L5.44945 7.47033C5.56664 6.92343 5.83521 6.47908 6.25515 6.13726C6.67509 5.79545 7.16828 5.62454 7.73471 5.62454H21.0947L20.0107 10.3123H23.4386L26.9544 15L25.7824 20.8596H23.4386C23.4386 21.8362 23.0968 22.6664 22.4131 23.35C21.7295 24.0336 20.8994 24.3754 19.9228 24.3754C18.9462 24.3754 18.1161 24.0336 17.4324 23.35C16.7488 22.6664 16.407 21.8362 16.407 20.8596H11.7193C11.7193 21.8362 11.3775 22.6664 10.6938 23.35C10.0102 24.0336 9.18009 24.3754 8.20348 24.3754ZM18.663 16.1719H24.3175L24.4347 15.5567L22.2666 12.6561H19.4833L18.663 16.1719ZM18.1063 8.17349L18.1649 7.9684L15.7038 18.5158L15.7624 18.3107L16.7586 14.0331L18.1063 8.17349ZM0.585938 16.5528L1.1719 14.2089H7.61752L7.03155 16.5528H0.585938ZM2.9298 12.2752L3.51576 9.93139H11.1333L10.5473 12.2752H2.9298ZM8.20348 22.0316C8.53553 22.0316 8.81386 21.9193 9.03848 21.6946C9.2631 21.47 9.37541 21.1917 9.37541 20.8596C9.37541 20.5276 9.2631 20.2493 9.03848 20.0246C8.81386 19.8 8.53553 19.6877 8.20348 19.6877C7.87144 19.6877 7.5931 19.8 7.36848 20.0246C7.14386 20.2493 7.03155 20.5276 7.03155 20.8596C7.03155 21.1917 7.14386 21.47 7.36848 21.6946C7.5931 21.9193 7.87144 22.0316 8.20348 22.0316ZM19.9228 22.0316C20.2548 22.0316 20.5332 21.9193 20.7578 21.6946C20.9824 21.47 21.0947 21.1917 21.0947 20.8596C21.0947 20.5276 20.9824 20.2493 20.7578 20.0246C20.5332 19.8 20.2548 19.6877 19.9228 19.6877C19.5907 19.6877 19.3124 19.8 19.0878 20.0246C18.8632 20.2493 18.7509 20.5276 18.7509 20.8596C18.7509 21.1917 18.8632 21.47 19.0878 21.6946C19.3124 21.9193 19.5907 22.0316 19.9228 22.0316Z" fill="#E8E8E8"/>
</g>
</svg>
