<svg width="129" height="30" viewBox="0 0 129 30" fill="none" xmlns="http://www.w3.org/2000/svg">
<path d="M4.34 17.5C3.38 17.5 2.58 17.2733 1.94 16.82C1.31333 16.3667 1 15.7267 1 14.9C1 14.3667 1.26 13.58 1.78 12.54C2.31333 11.4867 3.03333 10.2 3.94 8.68C4.86 7.16 5.51333 6.01333 5.9 5.24C6.3 4.45333 6.5 3.81333 6.5 3.32C6.5 3.18667 6.54 3.08 6.62 3C6.80667 2.81333 7.44667 2.72 8.54 2.72C9.26 2.72 9.62 2.86 9.62 3.14C9.62 3.27333 9.57333 3.38667 9.48 3.48C8.74667 4.50667 7.62 6.33333 6.1 8.96C4.58 11.5867 3.82 13.26 3.82 13.98C3.82 15.0333 4.3 15.56 5.26 15.56C6.12667 15.56 6.8 15.3333 7.28 14.88C7.64 14.52 7.94 14.1467 8.18 13.76C8.71333 12.9467 9.40667 11.6733 10.26 9.94C11.1133 8.19333 11.8733 6.64667 12.54 5.3C13.22 3.94 13.6933 3.15333 13.96 2.94C14.24 2.71333 14.72 2.6 15.4 2.6C16.0933 2.6 16.44 2.68 16.44 2.84C16.44 2.94667 16.32 3.14 16.08 3.42C15.8533 3.7 15.5133 4.18667 15.06 4.88C14.6067 5.57333 14.08 6.4 13.48 7.36C12.8933 8.32 12.38 9.16667 11.94 9.9C11.5 10.6333 10.98 11.5067 10.38 12.52C9.79333 13.52 9.44667 14.1067 9.34 14.28C8.08667 16.4267 6.42 17.5 4.34 17.5ZM19.6986 16.4L19.7386 17C19.7386 17.2133 19.4186 17.32 18.7786 17.32C17.6586 17.32 17.0986 17.1067 17.0986 16.68C17.0986 16.2533 17.3919 15.3333 17.9786 13.92C18.5786 12.5067 18.8786 11.6267 18.8786 11.28C18.8786 10.5733 18.4453 10.22 17.5786 10.22L17.2586 10.24C17.0986 10.24 17.0186 10.18 17.0186 10.06C17.0186 9.80667 17.1119 9.55333 17.2986 9.3C17.4986 9.03333 17.7453 8.9 18.0386 8.9C19.2519 8.9 20.3386 8.54 21.2986 7.82C22.2586 7.1 22.7386 6.34 22.7386 5.54C22.7386 4.96667 22.5586 4.56667 22.1986 4.34C21.8519 4.11333 21.3719 4 20.7586 4C20.1453 4 19.6786 4.18667 19.3586 4.56C18.5719 5.54667 17.3053 7.61333 15.5586 10.76C13.8253 13.8933 12.8519 15.82 12.6386 16.54C12.5186 16.8733 12.2053 17.12 11.6986 17.28C11.2053 17.44 10.7186 17.52 10.2386 17.52C9.77193 17.52 9.53859 17.4267 9.53859 17.24V17.2C9.53859 17.0533 9.99859 16.2 10.9186 14.64C11.8386 13.08 12.8519 11.3467 13.9586 9.44C15.0786 7.52 15.7986 6.19333 16.1186 5.46C16.4519 4.72667 16.6186 4.10667 16.6186 3.6V3.4C16.6186 3.04 17.6319 2.86 19.6586 2.86C21.8319 2.86 23.2653 3.08 23.9586 3.52C24.2519 3.70667 24.4986 3.98 24.6986 4.34C24.9119 4.7 25.0186 5.16 25.0186 5.72C25.0186 6.28 24.7919 6.84667 24.3386 7.42C23.8853 7.99333 23.3986 8.42 22.8786 8.7C22.3719 8.96667 21.8653 9.16 21.3586 9.28C20.8519 9.4 20.4719 9.5 20.2186 9.58C19.9653 9.66 19.8386 9.78667 19.8386 9.96C19.8386 10.0667 19.9319 10.2 20.1186 10.36C20.3186 10.5067 20.5186 10.6867 20.7186 10.9C20.9186 11.1133 21.0186 11.34 21.0186 11.58C21.0186 11.82 20.7986 12.5133 20.3586 13.66C19.9186 14.7933 19.6986 15.7067 19.6986 16.4ZM30.8389 15.62C30.2522 16.1533 29.4856 16.5933 28.5389 16.94C27.5922 17.2733 26.6722 17.44 25.7789 17.44C24.8856 17.44 24.2456 17.3933 23.8589 17.3C23.4856 17.22 23.2656 17.18 23.1989 17.18C23.0656 17.18 22.9322 17.22 22.7989 17.3C22.3722 17.6867 21.8589 17.88 21.2589 17.88C20.6589 17.88 20.3589 17.7733 20.3589 17.56C20.3589 17.4133 20.8189 16.54 21.7389 14.94C22.6722 13.34 23.6989 11.56 24.8189 9.6C25.9522 7.64 26.6789 6.29333 26.9989 5.56C27.3322 4.82667 27.4989 4.19333 27.4989 3.66V3.5C27.4989 3.14 28.5322 2.96 30.5989 2.96C32.4922 2.96 33.7056 3.06 34.2389 3.26C34.9322 3.52667 35.3656 3.88 35.5389 4.32C35.6456 4.58667 35.6989 4.90667 35.6989 5.28C35.6989 5.88 35.4789 6.44667 35.0389 6.98C34.2256 7.94 33.1722 8.57333 31.8789 8.88C31.3856 9 31.0922 9.1 30.9989 9.18C30.9056 9.26 30.8589 9.34667 30.8589 9.44C30.8589 9.52 30.9522 9.62667 31.1389 9.76C31.3389 9.88 31.5522 10.0133 31.7789 10.16C32.0189 10.3067 32.2322 10.5467 32.4189 10.88C32.6189 11.2133 32.7189 11.64 32.7189 12.16C32.7189 12.6667 32.5522 13.2333 32.2189 13.86C31.8989 14.4867 31.4389 15.0733 30.8389 15.62ZM29.0989 14.52C29.4856 14.0533 29.7856 13.58 29.9989 13.1C30.2256 12.62 30.3389 12.22 30.3389 11.9C30.3389 11.5667 30.2856 11.2867 30.1789 11.06C30.0856 10.82 29.9722 10.64 29.8389 10.52C29.7056 10.4 29.5456 10.3067 29.3589 10.24C29.0789 10.1333 28.7989 10.08 28.5189 10.08H28.3189C28.1456 10.08 28.0589 10.02 28.0589 9.9C28.0589 9.62 28.1589 9.32667 28.3589 9.02C28.5722 8.7 28.8122 8.54 29.0789 8.54C30.1589 8.54 31.1256 8.18 31.9789 7.46C32.8322 6.74 33.2589 5.97333 33.2589 5.16C33.2589 4.45333 32.7922 4.1 31.8589 4.1C31.0856 4.1 30.5456 4.28667 30.2389 4.66C29.3989 5.7 28.1856 7.64 26.5989 10.48C25.0122 13.3067 24.2189 14.9667 24.2189 15.46C24.2189 15.66 24.3256 15.8333 24.5389 15.98C24.7656 16.1267 25.1656 16.2 25.7389 16.2C26.3256 16.2 26.9322 16.04 27.5589 15.72C28.1989 15.3867 28.7122 14.9867 29.0989 14.52ZM33.7025 11.96C33.6092 11.96 33.5492 11.9 33.5225 11.78C33.5225 11.5533 33.6825 11.2933 34.0025 11C34.3225 10.7067 34.5758 10.52 34.7625 10.44C34.9625 10.36 35.6092 10.3067 36.7025 10.28L36.9825 9.96C41.0358 5.28 43.8492 2.94 45.4225 2.94C45.5558 2.92667 45.7092 2.92 45.8825 2.92C46.8025 2.92 47.2625 3.14 47.2625 3.58C47.2625 3.66 47.1758 3.87333 47.0025 4.22L46.1025 6.02C45.6758 6.87333 45.2625 7.74 44.8625 8.62C42.7025 13.38 41.4492 16.5 41.1025 17.98C41.1025 18.0867 40.9625 18.14 40.6825 18.14C40.4158 18.14 40.0892 17.9867 39.7025 17.68C39.3158 17.3867 39.1225 17.1267 39.1225 16.9C39.1225 16.4867 39.4492 15.7067 40.1025 14.56C40.7558 13.4133 41.0825 12.6667 41.0825 12.32C41.0825 11.8533 40.1758 11.62 38.3625 11.62C38.0958 11.62 37.6825 11.6333 37.1225 11.66L36.3625 12.66C35.4292 13.9133 34.5358 15.4667 33.6825 17.32C33.5358 17.6533 33.0892 17.82 32.3425 17.82C31.5958 17.82 31.2225 17.7133 31.2225 17.5C31.2225 17.3533 31.6358 16.7133 32.4625 15.58C33.3025 14.4333 34.2958 13.1667 35.4425 11.78C35.2425 11.8067 34.9892 11.8333 34.6825 11.86C34.3758 11.8867 34.1358 11.9133 33.9625 11.94C33.8025 11.9533 33.7158 11.96 33.7025 11.96ZM42.0025 9.38C42.5225 8.75333 42.9092 8.12 43.1625 7.48C43.4292 6.84 43.5625 6.40667 43.5625 6.18C43.5625 5.95333 43.4492 5.84 43.2225 5.84C42.8225 5.84 42.1625 6.26667 41.2425 7.12C40.3225 7.96 39.3225 9.01333 38.2425 10.28L40.4225 10.32C40.9558 10.32 41.4825 10.0067 42.0025 9.38ZM48.7102 16.54C48.7102 15.9533 48.9235 14.4667 49.3502 12.08C49.7902 9.69333 50.0102 8.38 50.0102 8.14C50.0102 7.88667 49.9368 7.76 49.7902 7.76C49.6568 7.76 49.4702 7.9 49.2302 8.18C48.9902 8.46 48.7902 8.73333 48.6302 9L48.3702 9.42C47.3035 11.1667 46.0968 13.48 44.7502 16.36C44.4835 16.9467 44.2302 17.32 43.9902 17.48C43.7502 17.6533 43.4035 17.74 42.9502 17.74C42.5102 17.74 42.2902 17.64 42.2902 17.44V17.38C42.2902 17.2067 42.6302 16.5733 43.3102 15.48C45.9102 11.3067 47.8102 8.00667 49.0102 5.58C49.3168 4.96667 49.4702 4.41333 49.4702 3.92V3.6C49.4702 3.50667 49.5035 3.41333 49.5702 3.32C49.6502 3.21333 49.8835 3.10667 50.2702 3C50.6568 2.88 51.1902 2.82 51.8702 2.82C52.8968 2.82 53.4102 3.01333 53.4102 3.4C53.4102 3.52 53.1368 4.81333 52.5902 7.28C52.0435 9.74667 51.7702 11.24 51.7702 11.76C51.7702 12.2667 51.8235 12.52 51.9302 12.52C52.0902 12.52 52.2568 12.4333 52.4302 12.26C52.6035 12.0867 52.7368 11.92 52.8302 11.76L52.9702 11.5C53.8235 10.1 54.5902 8.71333 55.2702 7.34C55.9502 5.95333 56.4502 4.93333 56.7702 4.28C57.0902 3.62667 57.3702 3.21333 57.6102 3.04C57.9568 2.84 58.3968 2.74 58.9302 2.74C59.4635 2.74 59.7302 2.82 59.7302 2.98V3.02C59.7302 3.11333 59.3768 3.67333 58.6702 4.7C57.9635 5.72667 57.0235 7.17333 55.8502 9.04C54.6902 10.8933 53.6768 12.6667 52.8102 14.36C52.4368 15.2267 52.2502 15.92 52.2502 16.44C52.2502 16.6 52.2168 16.72 52.1502 16.8C52.0968 16.88 51.8902 16.9533 51.5302 17.02C51.1835 17.1 50.8235 17.14 50.4502 17.14H49.8102C49.6635 17.14 49.4835 17.1067 49.2702 17.04C48.8968 16.9333 48.7102 16.7667 48.7102 16.54ZM68.5414 12.32C68.5414 13.7333 67.9547 14.92 66.7814 15.88C65.6214 16.8267 64.1347 17.3 62.3214 17.3C61.3214 17.3 60.5614 17.1533 60.0414 16.86C59.9881 16.8333 59.9281 16.82 59.8614 16.82C59.7947 16.82 59.5481 16.8933 59.1214 17.04C58.6947 17.1867 58.2614 17.26 57.8214 17.26C57.3947 17.26 57.1814 17.1333 57.1814 16.88C57.1814 16.5333 57.6014 15.6333 58.4414 14.18C59.2814 12.7133 60.0281 11.7267 60.6814 11.22C60.9614 11.0067 61.2347 10.9 61.5014 10.9C61.7681 10.9 61.9014 10.9733 61.9014 11.12C61.9014 11.1467 61.8081 11.3133 61.6214 11.62C61.4481 11.9133 61.2681 12.3067 61.0814 12.8C60.9081 13.2933 60.8214 13.72 60.8214 14.08C60.8214 14.4267 60.8547 14.72 60.9214 14.96C61.0014 15.2 61.1881 15.4467 61.4814 15.7C61.7881 15.94 62.1547 16.06 62.5814 16.06C63.0214 16.06 63.4281 16.0067 63.8014 15.9C64.1881 15.7933 64.5681 15.6267 64.9414 15.4C65.3147 15.1733 65.6214 14.84 65.8614 14.4C66.1014 13.96 66.2214 13.4533 66.2214 12.88C66.2214 12.2933 66.0414 11.7 65.6814 11.1C65.3214 10.5 64.9281 9.99333 64.5014 9.58C64.0747 9.15333 63.6814 8.67333 63.3214 8.14C62.9614 7.59333 62.7814 7.06667 62.7814 6.56C62.7814 6.04 62.9147 5.56 63.1814 5.12C63.4614 4.68 63.8014 4.33333 64.2014 4.08C64.6147 3.81333 65.0814 3.59333 65.6014 3.42C66.4814 3.12667 67.2614 2.98 67.9414 2.98C68.6214 2.98 69.1214 3.01333 69.4414 3.08C69.7747 3.13333 70.0214 3.18667 70.1814 3.24C70.3547 3.29333 70.4614 3.32 70.5014 3.32C70.5414 3.32 70.5947 3.3 70.6614 3.26C71.0614 3.03333 71.4947 2.92 71.9614 2.92C72.4281 2.92 72.6614 3.03333 72.6614 3.26C72.6614 3.63333 72.2147 4.47333 71.3214 5.78C70.4414 7.07333 69.7814 7.72 69.3414 7.72C68.9814 7.72 68.8014 7.64 68.8014 7.48C68.8014 7.45333 68.8481 7.36 68.9414 7.2C69.2347 6.66667 69.3814 6.06 69.3814 5.38C69.3814 5.00667 69.2214 4.72 68.9014 4.52C68.5814 4.30667 68.2481 4.2 67.9014 4.2C67.5681 4.2 67.2214 4.25333 66.8614 4.36C66.5147 4.46667 66.1614 4.68 65.8014 5C65.4547 5.32 65.2814 5.70667 65.2814 6.16C65.2814 6.6 65.4481 7.06667 65.7814 7.56C66.1281 8.04 66.5014 8.48667 66.9014 8.9C67.3147 9.3 67.6881 9.81333 68.0214 10.44C68.3681 11.0533 68.5414 11.68 68.5414 12.32ZM82.6158 6.22C82.6158 6.96667 82.4624 7.82 82.1558 8.78C81.8624 9.74 81.4224 10.72 80.8358 11.72C80.2491 12.72 79.5691 13.6467 78.7958 14.5C78.0358 15.34 77.1291 16.0333 76.0758 16.58C75.0358 17.1133 73.9558 17.38 72.8358 17.38C71.7291 17.38 70.8558 17.0733 70.2158 16.46C69.5758 15.8333 69.2558 14.9733 69.2558 13.88C69.2558 13.1333 69.4024 12.28 69.6958 11.32C70.0024 10.36 70.4491 9.38 71.0358 8.38C71.6224 7.38 72.2958 6.46 73.0558 5.62C73.8291 4.78 74.7358 4.09333 75.7758 3.56C76.8291 3.01333 77.9091 2.74 79.0158 2.74C80.1358 2.74 81.0158 3.04667 81.6558 3.66C82.2958 4.27333 82.6158 5.12667 82.6158 6.22ZM80.2558 6.04C80.2558 4.57333 79.7224 3.84 78.6558 3.84C77.7624 3.84 76.7624 4.40667 75.6558 5.54C74.5624 6.67333 73.6291 8.04667 72.8558 9.66C72.0958 11.26 71.7158 12.6933 71.7158 13.96C71.7158 15.4267 72.2491 16.16 73.3158 16.16C74.1958 16.16 75.1891 15.5933 76.2958 14.46C77.4024 13.3267 78.3358 11.96 79.0958 10.36C79.8691 8.74667 80.2558 7.30667 80.2558 6.04ZM84.047 17.5C83.087 17.5 82.287 17.2733 81.647 16.82C81.0204 16.3667 80.707 15.7267 80.707 14.9C80.707 14.3667 80.967 13.58 81.487 12.54C82.0204 11.4867 82.7404 10.2 83.647 8.68C84.567 7.16 85.2204 6.01333 85.607 5.24C86.007 4.45333 86.207 3.81333 86.207 3.32C86.207 3.18667 86.247 3.08 86.327 3C86.5137 2.81333 87.1537 2.72 88.247 2.72C88.967 2.72 89.327 2.86 89.327 3.14C89.327 3.27333 89.2804 3.38667 89.187 3.48C88.4537 4.50667 87.327 6.33333 85.807 8.96C84.287 11.5867 83.527 13.26 83.527 13.98C83.527 15.0333 84.007 15.56 84.967 15.56C85.8337 15.56 86.507 15.3333 86.987 14.88C87.347 14.52 87.647 14.1467 87.887 13.76C88.4204 12.9467 89.1137 11.6733 89.967 9.94C90.8204 8.19333 91.5804 6.64667 92.247 5.3C92.927 3.94 93.4004 3.15333 93.667 2.94C93.947 2.71333 94.427 2.6 95.107 2.6C95.8004 2.6 96.147 2.68 96.147 2.84C96.147 2.94667 96.027 3.14 95.787 3.42C95.5604 3.7 95.2204 4.18667 94.767 4.88C94.3137 5.57333 93.787 6.4 93.187 7.36C92.6004 8.32 92.087 9.16667 91.647 9.9C91.207 10.6333 90.687 11.5067 90.087 12.52C89.5004 13.52 89.1537 14.1067 89.047 14.28C87.7937 16.4267 86.127 17.5 84.047 17.5ZM92.3656 17.14L92.0856 17.12C91.899 17.12 91.759 17.18 91.6656 17.3C91.2123 17.6867 90.599 17.88 89.8256 17.88C89.4256 17.88 89.2256 17.7933 89.2256 17.62V17.56C89.2256 17.4133 89.6856 16.5467 90.6056 14.96C91.539 13.36 92.5656 11.58 93.6856 9.62C94.819 7.66 95.5456 6.31333 95.8656 5.58C96.199 4.84667 96.3656 4.24 96.3656 3.76V3.5C96.3656 3.15333 97.079 2.98 98.5056 2.98C99.2256 2.98 99.5856 3.11333 99.5856 3.38C99.5856 3.48667 99.5323 3.59333 99.4256 3.7C98.359 5.43333 96.9456 7.90667 95.1856 11.12L94.9056 11.62C94.719 11.9533 94.5856 12.1933 94.5056 12.34C94.4256 12.4733 94.299 12.7133 94.1256 13.06C93.9656 13.3933 93.8456 13.6667 93.7656 13.88C93.539 14.48 93.4256 14.9467 93.4256 15.28C93.4256 15.7733 93.8656 16.02 94.7456 16.02H94.8856C95.4323 16.02 96.0323 15.9067 96.6856 15.68C97.9656 15.2267 99.0056 14.36 99.8056 13.08C99.859 12.96 100.006 12.9 100.246 12.9C100.499 12.9 100.626 13.0067 100.626 13.22C100.626 13.54 100.412 14.1133 99.9856 14.94C99.559 15.7667 99.1723 16.38 98.8256 16.78C98.6523 17.02 98.319 17.14 97.8256 17.14C97.3323 17.1667 96.2656 17.18 94.6256 17.18L92.3656 17.14Z" fill="#1E1E1E"/>
<circle cx="105.5" cy="14.5" r="2.5" fill="#990100"/>
</svg>
