<svg width="73" height="40" viewBox="0 0 73 40" fill="none" xmlns="http://www.w3.org/2000/svg">
<circle cx="60" cy="36" r="3" fill="#990100"/>
<path d="M6.208 18.6C5.056 18.6 4.096 18.328 3.328 17.784C2.576 17.24 2.2 16.472 2.2 15.48C2.2 14.84 2.512 13.896 3.136 12.648C3.776 11.384 4.64 9.84 5.728 8.016C6.832 6.192 7.616 4.816 8.08 3.888C8.56 2.944 8.8 2.176 8.8 1.584C8.8 1.424 8.848 1.296 8.944 1.2C9.168 0.975999 9.936 0.863999 11.248 0.863999C12.112 0.863999 12.544 1.032 12.544 1.368C12.544 1.528 12.488 1.664 12.376 1.776C11.496 3.008 10.144 5.2 8.32 8.352C6.496 11.504 5.584 13.512 5.584 14.376C5.584 15.64 6.16 16.272 7.312 16.272C8.352 16.272 9.16 16 9.736 15.456C10.168 15.024 10.528 14.576 10.816 14.112C11.456 13.136 12.288 11.608 13.312 9.528C14.336 7.432 15.248 5.576 16.048 3.96C16.864 2.328 17.432 1.384 17.752 1.128C18.088 0.855999 18.664 0.719999 19.48 0.719999C20.312 0.719999 20.728 0.816 20.728 1.008C20.728 1.136 20.584 1.368 20.296 1.704C20.024 2.04 19.616 2.624 19.072 3.456C18.528 4.288 17.896 5.28 17.176 6.432C16.472 7.584 15.856 8.6 15.328 9.48C14.8 10.36 14.176 11.408 13.456 12.624C12.752 13.824 12.336 14.528 12.208 14.736C10.704 17.312 8.704 18.6 6.208 18.6ZM24.6383 17.28L24.6863 18C24.6863 18.256 24.3023 18.384 23.5343 18.384C22.1903 18.384 21.5183 18.128 21.5183 17.616C21.5183 17.104 21.8703 16 22.5743 14.304C23.2943 12.608 23.6543 11.552 23.6543 11.136C23.6543 10.288 23.1343 9.864 22.0943 9.864L21.7103 9.888C21.5183 9.888 21.4223 9.816 21.4223 9.672C21.4223 9.368 21.5343 9.064 21.7583 8.76C21.9983 8.44 22.2943 8.28 22.6463 8.28C24.1023 8.28 25.4063 7.848 26.5583 6.984C27.7103 6.12 28.2863 5.208 28.2863 4.248C28.2863 3.56 28.0703 3.08 27.6383 2.808C27.2223 2.536 26.6463 2.4 25.9103 2.4C25.1743 2.4 24.6143 2.624 24.2303 3.072C23.2863 4.256 21.7663 6.736 19.6703 10.512C17.5903 14.272 16.4223 16.584 16.1663 17.448C16.0223 17.848 15.6463 18.144 15.0383 18.336C14.4463 18.528 13.8623 18.624 13.2863 18.624C12.7263 18.624 12.4463 18.512 12.4463 18.288V18.24C12.4463 18.064 12.9983 17.04 14.1023 15.168C15.2063 13.296 16.4223 11.216 17.7503 8.928C19.0943 6.624 19.9583 5.032 20.3423 4.152C20.7423 3.272 20.9423 2.528 20.9423 1.92V1.68C20.9423 1.248 22.1583 1.032 24.5903 1.032C27.1983 1.032 28.9183 1.296 29.7503 1.824C30.1023 2.048 30.3983 2.376 30.6383 2.808C30.8943 3.24 31.0223 3.792 31.0223 4.464C31.0223 5.136 30.7503 5.816 30.2063 6.504C29.6623 7.192 29.0783 7.704 28.4543 8.04C27.8463 8.36 27.2383 8.592 26.6303 8.736C26.0223 8.88 25.5663 9 25.2623 9.096C24.9583 9.192 24.8063 9.344 24.8063 9.552C24.8063 9.68 24.9183 9.84 25.1423 10.032C25.3823 10.208 25.6223 10.424 25.8623 10.68C26.1023 10.936 26.2223 11.208 26.2223 11.496C26.2223 11.784 25.9583 12.616 25.4303 13.992C24.9023 15.352 24.6383 16.448 24.6383 17.28ZM38.0067 16.344C37.3027 16.984 36.3827 17.512 35.2467 17.928C34.1107 18.328 33.0067 18.528 31.9347 18.528C30.8627 18.528 30.0947 18.472 29.6307 18.36C29.1827 18.264 28.9187 18.216 28.8387 18.216C28.6787 18.216 28.5187 18.264 28.3587 18.36C27.8467 18.824 27.2307 19.056 26.5107 19.056C25.7907 19.056 25.4307 18.928 25.4307 18.672C25.4307 18.496 25.9827 17.448 27.0867 15.528C28.2067 13.608 29.4387 11.472 30.7827 9.12C32.1427 6.768 33.0147 5.152 33.3987 4.272C33.7987 3.392 33.9987 2.632 33.9987 1.992V1.8C33.9987 1.368 35.2387 1.152 37.7187 1.152C39.9907 1.152 41.4467 1.272 42.0867 1.512C42.9187 1.832 43.4387 2.256 43.6467 2.784C43.7747 3.104 43.8387 3.488 43.8387 3.936C43.8387 4.656 43.5747 5.336 43.0467 5.976C42.0707 7.128 40.8067 7.888 39.2547 8.256C38.6627 8.4 38.3107 8.52 38.1987 8.616C38.0867 8.712 38.0307 8.816 38.0307 8.928C38.0307 9.024 38.1427 9.152 38.3667 9.312C38.6067 9.456 38.8627 9.616 39.1347 9.792C39.4227 9.968 39.6787 10.256 39.9027 10.656C40.1427 11.056 40.2627 11.568 40.2627 12.192C40.2627 12.8 40.0627 13.48 39.6627 14.232C39.2787 14.984 38.7267 15.688 38.0067 16.344ZM35.9187 15.024C36.3827 14.464 36.7427 13.896 36.9987 13.32C37.2707 12.744 37.4067 12.264 37.4067 11.88C37.4067 11.48 37.3427 11.144 37.2147 10.872C37.1027 10.584 36.9667 10.368 36.8067 10.224C36.6467 10.08 36.4547 9.968 36.2307 9.888C35.8947 9.76 35.5587 9.696 35.2227 9.696H34.9827C34.7747 9.696 34.6707 9.624 34.6707 9.48C34.6707 9.144 34.7907 8.792 35.0307 8.424C35.2867 8.04 35.5747 7.848 35.8947 7.848C37.1907 7.848 38.3507 7.416 39.3747 6.552C40.3987 5.688 40.9107 4.768 40.9107 3.792C40.9107 2.944 40.3507 2.52 39.2307 2.52C38.3027 2.52 37.6547 2.744 37.2867 3.192C36.2787 4.44 34.8227 6.768 32.9187 10.176C31.0147 13.568 30.0627 15.56 30.0627 16.152C30.0627 16.392 30.1907 16.6 30.4467 16.776C30.7187 16.952 31.1987 17.04 31.8867 17.04C32.5907 17.04 33.3187 16.848 34.0707 16.464C34.8387 16.064 35.4547 15.584 35.9187 15.024ZM41.443 11.952C41.331 11.952 41.259 11.88 41.227 11.736C41.227 11.464 41.419 11.152 41.803 10.8C42.187 10.448 42.491 10.224 42.715 10.128C42.955 10.032 43.731 9.968 45.043 9.936L45.379 9.552C50.243 3.936 53.619 1.128 55.507 1.128C55.667 1.112 55.851 1.104 56.059 1.104C57.163 1.104 57.715 1.368 57.715 1.896C57.715 1.992 57.611 2.248 57.403 2.664L56.323 4.824C55.811 5.848 55.315 6.888 54.835 7.944C52.243 13.656 50.739 17.4 50.323 19.176C50.323 19.304 50.155 19.368 49.819 19.368C49.499 19.368 49.107 19.184 48.643 18.816C48.179 18.464 47.947 18.152 47.947 17.88C47.947 17.384 48.339 16.448 49.123 15.072C49.907 13.696 50.299 12.8 50.299 12.384C50.299 11.824 49.211 11.544 47.035 11.544C46.715 11.544 46.219 11.56 45.547 11.592L44.635 12.792C43.515 14.296 42.443 16.16 41.419 18.384C41.243 18.784 40.707 18.984 39.811 18.984C38.915 18.984 38.467 18.856 38.467 18.6C38.467 18.424 38.963 17.656 39.955 16.296C40.963 14.92 42.155 13.4 43.531 11.736C43.291 11.768 42.987 11.8 42.619 11.832C42.251 11.864 41.963 11.896 41.755 11.928C41.563 11.944 41.459 11.952 41.443 11.952ZM51.403 8.856C52.027 8.104 52.491 7.344 52.795 6.576C53.115 5.808 53.275 5.288 53.275 5.016C53.275 4.744 53.139 4.608 52.867 4.608C52.387 4.608 51.595 5.12 50.491 6.144C49.387 7.152 48.187 8.416 46.891 9.936L49.507 9.984C50.147 9.984 50.779 9.608 51.403 8.856ZM59.4522 17.448C59.4522 16.744 59.7082 14.96 60.2202 12.096C60.7482 9.232 61.0122 7.656 61.0122 7.368C61.0122 7.064 60.9242 6.912 60.7482 6.912C60.5882 6.912 60.3642 7.08 60.0762 7.416C59.7882 7.752 59.5482 8.08 59.3562 8.4L59.0442 8.904C57.7642 11 56.3162 13.776 54.7002 17.232C54.3802 17.936 54.0762 18.384 53.7882 18.576C53.5002 18.784 53.0842 18.888 52.5402 18.888C52.0122 18.888 51.7482 18.768 51.7482 18.528V18.456C51.7482 18.248 52.1562 17.488 52.9722 16.176C56.0922 11.168 58.3722 7.208 59.8122 4.296C60.1802 3.56 60.3642 2.896 60.3642 2.304V1.92C60.3642 1.808 60.4042 1.696 60.4842 1.584C60.5802 1.456 60.8602 1.328 61.3242 1.2C61.7882 1.056 62.4282 0.983999 63.2442 0.983999C64.4762 0.983999 65.0922 1.216 65.0922 1.68C65.0922 1.824 64.7642 3.376 64.1082 6.336C63.4522 9.296 63.1242 11.088 63.1242 11.712C63.1242 12.32 63.1882 12.624 63.3162 12.624C63.5082 12.624 63.7082 12.52 63.9162 12.312C64.1242 12.104 64.2842 11.904 64.3962 11.712L64.5642 11.4C65.5882 9.72 66.5082 8.056 67.3242 6.408C68.1402 4.744 68.7402 3.52 69.1242 2.736C69.5082 1.952 69.8442 1.456 70.1322 1.248C70.5482 1.008 71.0762 0.887999 71.7162 0.887999C72.3562 0.887999 72.6762 0.983999 72.6762 1.176V1.224C72.6762 1.336 72.2522 2.008 71.4042 3.24C70.5562 4.472 69.4282 6.208 68.0202 8.448C66.6282 10.672 65.4122 12.8 64.3722 14.832C63.9242 15.872 63.7002 16.704 63.7002 17.328C63.7002 17.52 63.6602 17.664 63.5802 17.76C63.5162 17.856 63.2682 17.944 62.8362 18.024C62.4202 18.12 61.9882 18.168 61.5402 18.168H60.7722C60.5962 18.168 60.3802 18.128 60.1242 18.048C59.6762 17.92 59.4522 17.72 59.4522 17.448Z" fill="#333333"/>
<path d="M14.32 32.384C14.32 34.08 13.616 35.504 12.208 36.656C10.816 37.792 9.032 38.36 6.856 38.36C5.656 38.36 4.744 38.184 4.12 37.832C4.056 37.8 3.984 37.784 3.904 37.784C3.824 37.784 3.528 37.872 3.016 38.048C2.504 38.224 1.984 38.312 1.456 38.312C0.944 38.312 0.688 38.16 0.688 37.856C0.688 37.44 1.192 36.36 2.2 34.616C3.208 32.856 4.104 31.672 4.888 31.064C5.224 30.808 5.552 30.68 5.872 30.68C6.192 30.68 6.352 30.768 6.352 30.944C6.352 30.976 6.24 31.176 6.016 31.544C5.808 31.896 5.592 32.368 5.368 32.96C5.16 33.552 5.056 34.064 5.056 34.496C5.056 34.912 5.096 35.264 5.176 35.552C5.272 35.84 5.496 36.136 5.848 36.44C6.216 36.728 6.656 36.872 7.168 36.872C7.696 36.872 8.184 36.808 8.632 36.68C9.096 36.552 9.552 36.352 10 36.08C10.448 35.808 10.816 35.408 11.104 34.88C11.392 34.352 11.536 33.744 11.536 33.056C11.536 32.352 11.32 31.64 10.888 30.92C10.456 30.2 9.984 29.592 9.472 29.096C8.96 28.584 8.488 28.008 8.056 27.368C7.624 26.712 7.408 26.08 7.408 25.472C7.408 24.848 7.568 24.272 7.888 23.744C8.224 23.216 8.632 22.8 9.112 22.496C9.608 22.176 10.168 21.912 10.792 21.704C11.848 21.352 12.784 21.176 13.6 21.176C14.416 21.176 15.016 21.216 15.4 21.296C15.8 21.36 16.096 21.424 16.288 21.488C16.496 21.552 16.624 21.584 16.672 21.584C16.72 21.584 16.784 21.56 16.864 21.512C17.344 21.24 17.864 21.104 18.424 21.104C18.984 21.104 19.264 21.24 19.264 21.512C19.264 21.96 18.728 22.968 17.656 24.536C16.6 26.088 15.808 26.864 15.28 26.864C14.848 26.864 14.632 26.768 14.632 26.576C14.632 26.544 14.688 26.432 14.8 26.24C15.152 25.6 15.328 24.872 15.328 24.056C15.328 23.608 15.136 23.264 14.752 23.024C14.368 22.768 13.968 22.64 13.552 22.64C13.152 22.64 12.736 22.704 12.304 22.832C11.888 22.96 11.464 23.216 11.032 23.6C10.616 23.984 10.408 24.448 10.408 24.992C10.408 25.52 10.608 26.08 11.008 26.672C11.424 27.248 11.872 27.784 12.352 28.28C12.848 28.76 13.296 29.376 13.696 30.128C14.112 30.864 14.32 31.616 14.32 32.384ZM31.2093 25.064C31.2093 25.96 31.0253 26.984 30.6573 28.136C30.3053 29.288 29.7773 30.464 29.0733 31.664C28.3693 32.864 27.5533 33.976 26.6253 35C25.7133 36.008 24.6253 36.84 23.3613 37.496C22.1133 38.136 20.8173 38.456 19.4733 38.456C18.1453 38.456 17.0973 38.088 16.3293 37.352C15.5613 36.6 15.1773 35.568 15.1773 34.256C15.1773 33.36 15.3533 32.336 15.7053 31.184C16.0733 30.032 16.6093 28.856 17.3133 27.656C18.0173 26.456 18.8253 25.352 19.7373 24.344C20.6653 23.336 21.7533 22.512 23.0013 21.872C24.2653 21.216 25.5613 20.888 26.8893 20.888C28.2333 20.888 29.2893 21.256 30.0573 21.992C30.8253 22.728 31.2093 23.752 31.2093 25.064ZM28.3773 24.848C28.3773 23.088 27.7373 22.208 26.4573 22.208C25.3853 22.208 24.1853 22.888 22.8573 24.248C21.5453 25.608 20.4253 27.256 19.4973 29.192C18.5853 31.112 18.1293 32.832 18.1293 34.352C18.1293 36.112 18.7693 36.992 20.0493 36.992C21.1053 36.992 22.2973 36.312 23.6253 34.952C24.9533 33.592 26.0733 31.952 26.9853 30.032C27.9133 28.096 28.3773 26.368 28.3773 24.848ZM32.9268 38.6C31.7748 38.6 30.8148 38.328 30.0468 37.784C29.2948 37.24 28.9188 36.472 28.9188 35.48C28.9188 34.84 29.2308 33.896 29.8548 32.648C30.4948 31.384 31.3588 29.84 32.4468 28.016C33.5508 26.192 34.3348 24.816 34.7988 23.888C35.2788 22.944 35.5188 22.176 35.5188 21.584C35.5188 21.424 35.5668 21.296 35.6628 21.2C35.8868 20.976 36.6548 20.864 37.9668 20.864C38.8308 20.864 39.2628 21.032 39.2628 21.368C39.2628 21.528 39.2068 21.664 39.0948 21.776C38.2148 23.008 36.8628 25.2 35.0388 28.352C33.2148 31.504 32.3028 33.512 32.3028 34.376C32.3028 35.64 32.8788 36.272 34.0308 36.272C35.0708 36.272 35.8788 36 36.4548 35.456C36.8868 35.024 37.2468 34.576 37.5348 34.112C38.1748 33.136 39.0068 31.608 40.0308 29.528C41.0548 27.432 41.9668 25.576 42.7668 23.96C43.5828 22.328 44.1508 21.384 44.4708 21.128C44.8068 20.856 45.3828 20.72 46.1988 20.72C47.0308 20.72 47.4468 20.816 47.4468 21.008C47.4468 21.136 47.3028 21.368 47.0148 21.704C46.7428 22.04 46.3348 22.624 45.7908 23.456C45.2468 24.288 44.6148 25.28 43.8948 26.432C43.1908 27.584 42.5748 28.6 42.0468 29.48C41.5188 30.36 40.8948 31.408 40.1748 32.624C39.4708 33.824 39.0548 34.528 38.9268 34.736C37.4228 37.312 35.4228 38.6 32.9268 38.6ZM42.9091 38.168L42.5731 38.144C42.3491 38.144 42.1811 38.216 42.0691 38.36C41.5251 38.824 40.7891 39.056 39.8611 39.056C39.3811 39.056 39.1411 38.952 39.1411 38.744V38.672C39.1411 38.496 39.6931 37.456 40.7971 35.552C41.9171 33.632 43.1491 31.496 44.4931 29.144C45.8531 26.792 46.7251 25.176 47.1091 24.296C47.5091 23.416 47.7091 22.688 47.7091 22.112V21.8C47.7091 21.384 48.5651 21.176 50.2771 21.176C51.1411 21.176 51.5731 21.336 51.5731 21.656C51.5731 21.784 51.5091 21.912 51.3811 22.04C50.1011 24.12 48.4051 27.088 46.2931 30.944L45.9571 31.544C45.7331 31.944 45.5731 32.232 45.4771 32.408C45.3811 32.568 45.2291 32.856 45.0211 33.272C44.8291 33.672 44.6851 34 44.5891 34.256C44.3171 34.976 44.1811 35.536 44.1811 35.936C44.1811 36.528 44.7091 36.824 45.7651 36.824H45.9331C46.5891 36.824 47.3091 36.688 48.0931 36.416C49.6291 35.872 50.8771 34.832 51.8371 33.296C51.9011 33.152 52.0771 33.08 52.3651 33.08C52.6691 33.08 52.8211 33.208 52.8211 33.464C52.8211 33.848 52.5651 34.536 52.0531 35.528C51.5411 36.52 51.0771 37.256 50.6611 37.736C50.4531 38.024 50.0531 38.168 49.4611 38.168C48.8691 38.2 47.5891 38.216 45.6211 38.216L42.9091 38.168Z" fill="black"/>
</svg>
