<svg width="45" height="45" viewBox="0 0 45 45" fill="none" xmlns="http://www.w3.org/2000/svg">
<mask id="mask0_53_475" style="mask-type:alpha" maskUnits="userSpaceOnUse" x="0" y="0" width="45" height="45">
<rect width="44.3819" height="44.3819" fill="#D9D9D9"/>
</mask>
<g mask="url(#mask0_53_475)">
<path d="M22.1909 22.1909C20.1567 22.1909 18.4153 21.4666 16.9668 20.0181C15.5182 18.5695 14.7939 16.8281 14.7939 14.794C14.7939 12.7598 15.5182 11.0184 16.9668 9.56984C18.4153 8.12126 20.1567 7.39697 22.1909 7.39697C24.225 7.39697 25.9664 8.12126 27.415 9.56984C28.8636 11.0184 29.5878 12.7598 29.5878 14.794C29.5878 16.8281 28.8636 18.5695 27.415 20.0181C25.9664 21.4666 24.225 22.1909 22.1909 22.1909ZM7.39691 36.9849V31.807C7.39691 30.7591 7.66659 29.7959 8.20596 28.9176C8.74532 28.0392 9.4619 27.3688 10.3557 26.9065C12.2666 25.9511 14.2083 25.2345 16.1808 24.7568C18.1534 24.279 20.1567 24.0402 22.1909 24.0402C24.225 24.0402 26.2284 24.279 28.2009 24.7568C30.1734 25.2345 32.1152 25.9511 34.026 26.9065C34.9198 27.3688 35.6364 28.0392 36.1758 28.9176C36.7151 29.7959 36.9848 30.7591 36.9848 31.807V36.9849H7.39691Z" fill="black" fill-opacity="0.5"/>
</g>
</svg>
