<svg width="124" height="124" viewBox="0 0 124 124" fill="none" xmlns="http://www.w3.org/2000/svg">
<mask id="mask0_297_8" style="mask-type:alpha" maskUnits="userSpaceOnUse" x="0" y="0" width="124" height="124">
<rect width="124" height="124" fill="#D9D9D9"/>
</mask>
<g mask="url(#mask0_297_8)">
<path d="M62 62.0001C56.3166 62.0001 51.4513 59.9765 47.4041 55.9292C43.3569 51.882 41.3333 47.0167 41.3333 41.3334C41.3333 35.6501 43.3569 30.7848 47.4041 26.7376C51.4513 22.6904 56.3166 20.6667 62 20.6667C67.6833 20.6667 72.5486 22.6904 76.5958 26.7376C80.643 30.7848 82.6666 35.6501 82.6666 41.3334C82.6666 47.0167 80.643 51.882 76.5958 55.9292C72.5486 59.9765 67.6833 62.0001 62 62.0001ZM20.6666 103.333V88.8667C20.6666 85.939 21.4201 83.248 22.927 80.7938C24.434 78.3397 26.4361 76.4667 28.9333 75.1751C34.2722 72.5056 39.6972 70.5036 45.2083 69.1688C50.7194 67.8341 56.3166 67.1667 62 67.1667C67.6833 67.1667 73.2805 67.8341 78.7916 69.1688C84.3027 70.5036 89.7277 72.5056 95.0666 75.1751C97.5638 76.4667 99.5659 78.3397 101.073 80.7938C102.58 83.248 103.333 85.939 103.333 88.8667V103.333H20.6666Z" fill="#7D7D7D"/>
</g>
</svg>
