<svg width="29" height="30" viewBox="0 0 29 30" fill="none" xmlns="http://www.w3.org/2000/svg">
<mask id="mask0_98_417" style="mask-type:alpha" maskUnits="userSpaceOnUse" x="0" y="0" width="29" height="30">
<rect x="0.803467" y="0.936829" width="28.1263" height="28.1263" fill="#D9D9D9"/>
</mask>
<g mask="url(#mask0_98_417)">
<path d="M19.5542 13.8281C19.8863 13.8281 20.1646 13.7158 20.3892 13.4911C20.6139 13.2665 20.7262 12.9882 20.7262 12.6561C20.7262 12.3241 20.6139 12.0458 20.3892 11.8211C20.1646 11.5965 19.8863 11.4842 19.5542 11.4842C19.2222 11.4842 18.9439 11.5965 18.7192 11.8211C18.4946 12.0458 18.3823 12.3241 18.3823 12.6561C18.3823 12.9882 18.4946 13.2665 18.7192 13.4911C18.9439 13.7158 19.2222 13.8281 19.5542 13.8281ZM10.1788 11.4842H16.0385V9.14035H10.1788V11.4842ZM6.07704 25.5474C5.41295 23.3207 4.75862 21.0989 4.11406 18.882C3.4695 16.6651 3.14722 14.3945 3.14722 12.0702C3.14722 10.2732 3.77225 8.74971 5.02231 7.49965C6.27236 6.24959 7.79587 5.62456 9.59283 5.62456H15.4525C16.0189 4.88234 16.7074 4.30614 17.518 3.89596C18.3286 3.48579 19.2027 3.2807 20.1402 3.2807C20.6285 3.2807 21.0436 3.45161 21.3854 3.79342C21.7272 4.13523 21.8981 4.55029 21.8981 5.0386C21.8981 5.15579 21.8835 5.27298 21.8542 5.39018C21.8249 5.50737 21.7907 5.6148 21.7516 5.71246C21.6735 5.92731 21.6002 6.14705 21.5319 6.37167C21.4635 6.59629 21.4098 6.82579 21.3707 7.06018L24.0369 9.72632H26.5858V17.9005L23.2751 18.9846L21.3121 25.5474H14.8665V23.2035H12.5227V25.5474H6.07704ZM7.83494 23.2035H10.1788V20.8597H17.2104V23.2035H19.5542L21.3707 17.1681L24.242 16.2012V12.0702H23.07L18.9683 7.96842C18.9683 7.57778 18.9927 7.20178 19.0415 6.84044C19.0904 6.47909 19.1636 6.11287 19.2613 5.74175C18.6948 5.89801 18.1968 6.16658 17.767 6.54746C17.3373 6.92833 17.0248 7.40199 16.8295 7.96842H9.59283C8.45997 7.96842 7.49313 8.36883 6.69231 9.16965C5.89149 9.97047 5.49108 10.9373 5.49108 12.0702C5.49108 13.9843 5.75476 15.8545 6.28213 17.6808C6.8095 19.5071 7.3271 21.348 7.83494 23.2035Z" fill="#E8E8E8"/>
</g>
</svg>
