<svg width="10" height="10" viewBox="0 0 10 10" fill="none" xmlns="http://www.w3.org/2000/svg">
<path d="M3.61133 0.0126953C4.61726 0.0127453 5.46841 0.360992 6.16504 1.05762C6.86157 1.75425 7.20996 2.60541 7.20996 3.61133C7.20994 4.01731 7.14472 4.40016 7.01562 4.75977C6.88643 5.11959 6.71149 5.43828 6.49023 5.71484L6.4834 5.72363L9.98242 9.22266L9.22266 9.98242L5.72363 6.4834L5.71484 6.49023C5.43828 6.71149 5.11959 6.88643 4.75977 7.01562C4.40016 7.14472 4.01731 7.20994 3.61133 7.20996C2.60541 7.20996 1.75425 6.86157 1.05762 6.16504C0.360992 5.46841 0.0127453 4.61726 0.0126953 3.61133C0.0126953 2.60531 0.360942 1.75429 1.05762 1.05762C1.75429 0.360942 2.60531 0.0126953 3.61133 0.0126953ZM3.61133 1.09863C2.91361 1.09863 2.31954 1.34257 1.83105 1.83105C1.34257 2.31954 1.09863 2.91361 1.09863 3.61133C1.09868 4.30883 1.3428 4.90225 1.83105 5.39062C2.31954 5.87911 2.91361 6.12402 3.61133 6.12402C4.30896 6.12397 4.90219 5.87906 5.39062 5.39062C5.87906 4.90219 6.12397 4.30896 6.12402 3.61133C6.12402 2.91361 5.87911 2.31954 5.39062 1.83105C4.90225 1.3428 4.30883 1.09868 3.61133 1.09863Z" fill="black" fill-opacity="0.5" stroke="black" stroke-width="0.025"/>
</svg>
