<svg width="15" height="15" viewBox="0 0 15 15" fill="none" xmlns="http://www.w3.org/2000/svg">
<path d="M5.41699 0.0126953C6.9275 0.0127704 8.20582 0.535894 9.25195 1.58203C10.2979 2.62818 10.8213 3.9065 10.8213 5.41699C10.8213 6.02659 10.7241 6.6015 10.5303 7.1416C10.3363 7.68199 10.0726 8.15973 9.74023 8.5752L9.7334 8.58398L14.9824 13.833L13.833 14.9824L8.58398 9.7334L8.5752 9.74023C8.15973 10.0726 7.68199 10.3363 7.1416 10.5303C6.6015 10.7241 6.02659 10.8213 5.41699 10.8213C3.9065 10.8213 2.62818 10.2979 1.58203 9.25195C0.535894 8.20582 0.0127704 6.9275 0.0126953 5.41699C0.0126953 3.90634 0.535819 2.62824 1.58203 1.58203C2.62824 0.535819 3.90634 0.0126953 5.41699 0.0126953ZM5.41699 1.6543C4.37205 1.6543 3.48349 2.02042 2.75195 2.75195C2.02042 3.48349 1.6543 4.37205 1.6543 5.41699C1.65437 6.4618 2.02049 7.35057 2.75195 8.08203C3.48343 8.81335 4.3722 9.17871 5.41699 9.17871C6.4618 9.17864 7.35057 8.81349 8.08203 8.08203C8.81349 7.35057 9.17864 6.4618 9.17871 5.41699C9.17871 4.3722 8.81335 3.48343 8.08203 2.75195C7.35057 2.02049 6.4618 1.65437 5.41699 1.6543Z" fill="black" fill-opacity="0.5" stroke="black" stroke-width="0.025"/>
</svg>
