<svg width="25" height="25" viewBox="0 0 25 25" fill="none" xmlns="http://www.w3.org/2000/svg">
<mask id="mask0_69_69" style="mask-type:alpha" maskUnits="userSpaceOnUse" x="0" y="0" width="25" height="25">
<rect width="25" height="25" fill="#D9D9D9"/>
</mask>
<g mask="url(#mask0_69_69)">
<path d="M6.25002 22.9166C5.6771 22.9166 5.18665 22.7126 4.77867 22.3046C4.37068 21.8966 4.16669 21.4062 4.16669 20.8333V8.33325C4.16669 7.76034 4.37068 7.26988 4.77867 6.8619C5.18665 6.45391 5.6771 6.24992 6.25002 6.24992H8.33335C8.33335 5.10409 8.74134 4.12318 9.55731 3.30721C10.3733 2.49124 11.3542 2.08325 12.5 2.08325C13.6459 2.08325 14.6268 2.49124 15.4427 3.30721C16.2587 4.12318 16.6667 5.10409 16.6667 6.24992H18.75C19.3229 6.24992 19.8134 6.45391 20.2214 6.8619C20.6294 7.26988 20.8334 7.76034 20.8334 8.33325V20.8333C20.8334 21.4062 20.6294 21.8966 20.2214 22.3046C19.8134 22.7126 19.3229 22.9166 18.75 22.9166H6.25002ZM6.25002 20.8333H18.75V8.33325H16.6667V10.4166C16.6667 10.7117 16.5669 10.9591 16.3672 11.1588C16.1676 11.3584 15.9202 11.4583 15.625 11.4583C15.3299 11.4583 15.0825 11.3584 14.8828 11.1588C14.6832 10.9591 14.5834 10.7117 14.5834 10.4166V8.33325H10.4167V10.4166C10.4167 10.7117 10.3169 10.9591 10.1172 11.1588C9.91755 11.3584 9.67016 11.4583 9.37502 11.4583C9.07988 11.4583 8.83249 11.3584 8.63283 11.1588C8.43318 10.9591 8.33335 10.7117 8.33335 10.4166V8.33325H6.25002V20.8333ZM10.4167 6.24992H14.5834C14.5834 5.677 14.3794 5.18655 13.9714 4.77856C13.5634 4.37058 13.0729 4.16659 12.5 4.16659C11.9271 4.16659 11.4367 4.37058 11.0287 4.77856C10.6207 5.18655 10.4167 5.677 10.4167 6.24992Z" fill="#333333"/>
</g>
</svg>
